# AST/ASF file generated using VICON BodyLanguage
# -----------------------------------------------
:version 1.10
:name VICON
:units
  mass 1.0
  length 0.45
  angle deg
:documentation
   .ast/.asf automatically generated from VICON data using
   VICON BodyBuilder and BodyLanguage model FoxedUp or BRILLIANT.MOD
:root
   order TX TY TZ RX RY RZ
   axis XYZ
   position 0 0 0  
   orientation 0 0 0 
:bonedata
  begin
     id 1 
     name lhipjoint
     direction 0.621036 -0.695554 0.361275 
     length 2.46325 
     axis 0 0 0  XYZ
  end
  begin
     id 2 
     name lfemur
     direction 0.34202 -0.939693 0  
     length 6.54784  
     axis 0 0 20  XYZ
    dof rx ry rz
    limits (-160.0 20.0)
           (-70.0 70.0)
           (-60.0 70.0)
  end
  begin
     id 3 
     name ltibia
     direction 0.34202 -0.939693 0   
     length 7.84737   
     axis 0 0 20   XYZ
    dof rx
    limits (-10.0 170.0)
  end
  begin
     id 4 
     name lfoot
     direction 0.0790693 -0.217241 0.97291   
     length 2.59747   
     axis -90 7.62852e-016 20   XYZ
    dof rx rz
    limits (-45.0 90.0)
           (-70.0 20.0)
  end
  begin
     id 5 
     name ltoes
     direction 1.53572e-011 -4.21898e-011 1   
     length 1.29919   
     axis -90 7.62852e-016 20   XYZ
    dof rx
    limits (-90.0 20.0)
  end
  begin
     id 6 
     name rhipjoint
     direction -0.602353 -0.708375 0.367935   
     length 2.41867  
     axis 0 0 0  XYZ 
  end
  begin
     id 7 
     name rfemur
     direction -0.34202 -0.939693 0   
     length 6.92065   
     axis 0 0 -20   XYZ
    dof rx ry rz
    limits (-160.0 20.0)
           (-70.0 70.0)
           (-70.0 60.0)
  end
  begin
     id 8 
     name rtibia
     direction -0.34202 -0.939693 0   
     length 7.88883   
     axis 0 0 -20   XYZ
    dof rx
    limits (-10.0 170.0)
 end
 begin
     id 9 
     name rfoot
     direction -0.0768692 -0.211196 0.974416   
     length 2.43714  
     axis -90 -7.62852e-016 -20   XYZ
    dof rx rz
    limits (-45.0 90.0)
           (-20.0 70.0)
  end
  begin
     id 10 
     name rtoes
     direction -1.53575e-011 -4.21933e-011 1   
     length 1.22113   
     axis -90 -7.62852e-016 -20   XYZ
    dof rx
    limits (-90.0 20.0)
  end
  begin
     id 11 
     name lowerback
     direction 0.0197937 0.98943 -0.143655   
     length 2.16931   
     axis 0 0 0   XYZ
    dof rx ry rz
    limits (-20.0 45.0)
           (-30.0 30.0)
           (-30.0 30.0)
  end
  begin
     id 12 
     name upperback
     direction -0.00183968 0.999975 0.00684288   
     length 2.17221   
     axis 0 0 0   XYZ
    dof rx ry rz
    limits (-20.0 45.0)
           (-30.0 30.0)
           (-30.0 30.0)
  end
  begin
     id 13 
     name thorax
     direction -0.00950244 0.997208 0.0740685   
     length 2.22549   
     axis 0 0 0   XYZ
    dof rx ry rz
    limits (-20.0 45.0)
           (-30.0 30.0)
           (-30.0 30.0)
  end
  begin
     id 14 
     name lowerneck
     direction 0.0218238 0.996215 0.0841425   
     length 1.77269   
     axis 0 0 0   XYZ
    dof rx ry rz
    limits (-20.0 45.0)
           (-30.0 30.0)
           (-30.0 30.0)
  end
  begin
     id 15 
     name upperneck
     direction -0.00430652 0.994214 -0.107332   
     length 1.76534   
     axis 0 0 0   XYZ
    dof rx ry rz
    limits (-20.0 45.0)
           (-30.0 30.0)
           (-30.0 30.0)
  end
  begin
     id 16
     name head
     direction -0.00328946 0.998959 -0.0454998  
     length 1.82634  
     axis 0 0 0   XYZ
    dof rx ry rz
    limits (-20.0 45.0)
           (-30.0 30.0)
           (-30.0 30.0)
  end
  begin
     id 17 
     name lclavicle
     direction 0.970962 0.239191 0.00450212  
     length 3.84872  
     axis 0 0 0   XYZ
    dof ry rz
    limits (-20.0 10.0)
           (0.0 20.0)
  end
  begin
     id 18 
     name lhumerus
     direction 1 -4.48966e-011 5.74696e-028   
     length 5.22771   
     axis 180 -30 -90   XYZ
    dof rx ry rz
    limits (-60.0 90.0)
           (-90.0 90.0)
           (-90.0 90.0)
  end
  begin
     id 19
     name lradius
     direction 1 -4.4896e-011 4.25109e-027   
     length 3.45251   
     axis 180 -30 -90   XYZ
    dof rx
    limits (-10.0 170.0)
  end
  begin
     id 20
     name lwrist
     direction 1 -4.48971e-011 1.15382e-027   
     length 1.72626   
     axis -5.52449e-016 90 90   XYZ
    dof ry
    limits (-180.0 0.0)
 end
  begin
     id 21 
     name lhand
     direction 1 -4.49034e-011 2.30765e-027   
     length 0.552119   
     axis -1.47248e-015 90 90   XYZ
    dof rx rz
    limits (-90.0 90.0)
           (-45.0 45.0)
  end
  begin
     id 22 
     name lfingers
     direction 1 -4.48951e-011 4.61529e-027   
     length 0.445133   
     axis -2.94495e-015 90 90   XYZ
    dof rx
    limits (0.0 90.0)
  end
  begin
     id 23
     name lthumb
     direction 0.707107 -6.34991e-011 0.707107   
     length 0.639124   
     axis -90 45 2.85299e-015   XYZ
    dof rx rz
    limits (-45.0 45.0)
           (-45.0 45.0)
  end
  begin
     id 24 
     name rclavicle
     direction -0.97424 0.222511 -0.0366699   
     length 3.73439  
     axis 0 0 0   XYZ 
    dof ry rz
    limits (-10.0 20.0)
           (-20.0 0.0)
  end
  begin
     id 25 
     name rhumerus
     direction -1 -4.48956e-011 -4.97258e-028  
     length 5.2398   
     axis 180 30 90   XYZ
    dof rx ry rz
    limits (-90.0 60.0)
           (-90.0 90.0)
           (-90.0 90.0)
  end
  begin
     id 26 
     name rradius
     direction -1 -4.4897e-011 -1.72611e-027   
     length 3.48042   
     axis 180 30 90   XYZ
    dof rx
    limits (-10.0 170.0)
  end
  begin
     id 27 
     name rwrist
     direction -1 -4.48976e-011 1.15382e-027   
     length 1.74021   
     axis -5.52449e-016 -90 -90   XYZ
    dof ry
    limits (-180.0 0.0)
  end
  begin
     id 28
     name rhand
     direction -1 -4.48963e-011 2.30765e-027   
     length 0.618713   
     axis -1.47248e-015 -90 -90   XYZ
    dof rx rz
    limits (-90.0 90.0)
           (-45.0 45.0)
  end
  begin
     id 29
     name rfingers
     direction -1 -4.4888e-011 4.61529e-027   
     length 0.498823   
     axis -2.94495e-015 -90 -90   XYZ
    dof rx
    limits (0.0 90.0)
  end
  begin
     id 30
     name rthumb
     direction -0.707107 -6.34968e-011 0.707107   
     length 0.716213   
     axis -90 -45 -2.85299e-015   XYZ
    dof rx rz
    limits (-45.0 45.0)
           (-45.0 45.0)
  end
:hierarchy
  begin
    root lhipjoint rhipjoint lowerback
    lhipjoint lfemur
    lfemur ltibia
    ltibia lfoot
    lfoot ltoes
    rhipjoint rfemur
    rfemur rtibia
    rtibia rfoot
    rfoot rtoes
    lowerback upperback
    upperback thorax
    thorax lowerneck lclavicle rclavicle
    lowerneck upperneck
    upperneck head
    lclavicle lhumerus
    lhumerus lradius
    lradius lwrist
    lwrist lhand lthumb
    lhand lfingers
    rclavicle rhumerus
    rhumerus rradius
    rradius rwrist
    rwrist rhand rthumb
    rhand rfingers
  end

#!OML:ASF G:\JayActor3\Patient Classification 1\Patient 1\Session 5\male.ASF
:FULLY-SPECIFIED
:DEGREES
1
root -37.1837 17.3784 -5.85154 -97.2321 87.0741 -95.8147
lowerback -1.85243 -0.691594 2.23145
upperback 1.43163 -0.98184 -0.145427
thorax 2.46806 -0.448045 -1.43844
lowerneck -7.30538 -0.705678 0.97423
upperneck 10.355 -1.25657 2.21833
head 4.77862 -0.431827 0.503383
rclavicle 5.57839e-015 -1.03368e-014
rhumerus -32.7091 -10.1084 -85.76
rradius 23.0091
rwrist 5.24408
rhand -19.855 -8.57882
rfingers 7.12502
rthumb 6.47983 -38.4597
lclavicle 5.57839e-015 -1.03368e-014
lhumerus -30.4809 13.7115 82.0377
lradius 18.9666
lwrist 10.5856
lhand -19.0634 21.6706
lfingers 7.12502
lthumb 7.24398 51.5266
rfemur -4.73197 1.19483 23.7469
rtibia 34.6003
rfoot -17.2648 -6.23578
rtoes 0.246014
lfemur 5.98981 6.05149 -17.0345
ltibia 17.4471
lfoot -7.94753 0.139207
ltoes -8.56402
2
root -37.1618 17.4389 -5.85432 -96.7984 86.982 -95.3209
lowerback -1.90224 -0.68637 2.3619
upperback 1.44053 -0.980497 -0.128507
thorax 2.50364 -0.444673 -1.49494
lowerneck -7.33314 -0.699243 0.968902
upperneck 10.913 -1.26126 2.27431
head 4.48137 -0.419207 0.467714
rclavicle -2.59041e-015 7.95139e-016
rhumerus -32.6715 -10.3067 -85.6773
rradius 22.8427
rwrist 5.48784
rhand -19.7248 -8.45945
rfingers 7.12502
rthumb 6.60553 -38.3364
lclavicle -2.59041e-015 7.95139e-016
lhumerus -30.3823 13.9505 81.92
lradius 18.7494
lwrist 10.3464
lhand -19.0489 21.7483
lfingers 7.12502
lthumb 7.25798 51.6038
rfemur -4.59374 0.914458 23.6808
rtibia 34.3899
rfoot -15.8467 -6.11673
rtoes -0.585306
lfemur 5.8751 6.09795 -16.876
ltibia 17.7215
lfoot -6.90067 0.224489
ltoes -9.18959
3
root -37.1401 17.5006 -5.85662 -94.5115 86.8504 -93.0117
lowerback -1.97616 -0.667364 2.50558
upperback 1.4373 -0.962819 -0.0700589
thorax 2.54156 -0.43331 -1.51578
lowerneck -7.43616 -0.674511 0.906758
upperneck 11.16 -1.22763 2.29288
head 4.57459 -0.39905 0.485313
rclavicle -5.10318e-015 3.57812e-015
rhumerus -32.6473 -10.2558 -85.6796
rradius 22.791
rwrist 5.42693
rhand -19.827 -8.44235
rfingers 7.12502
rthumb 6.50686 -38.3224
lclavicle -5.10318e-015 3.57812e-015
lhumerus -30.3612 14.1429 81.8542
lradius 18.6579
lwrist 10.2405
lhand -19.0278 21.5415
lfingers 7.12502
lthumb 7.27835 51.3963
rfemur -4.57916 0.796437 23.6893
rtibia 34.2964
rfoot -14.6724 -5.92338
rtoes -0.310226
lfemur 5.83936 6.00208 -16.7229
ltibia 17.7938
lfoot -5.77144 0.587496
ltoes -10.6275
4
root -37.1268 17.5584 -5.85607 -93.0605 86.8013 -91.6151
lowerback -2.00997 -0.636901 2.55415
upperback 1.34913 -0.92413 -0.0627131
thorax 2.47097 -0.415236 -1.53366
lowerneck -7.43193 -0.644851 0.997527
upperneck 11.317 -1.19151 2.22626
head 4.62095 -0.378335 0.452266
rclavicle 5.74612e-016 -3.57812e-015
rhumerus -32.7182 -10.336 -85.6417
rradius 22.7407
rwrist 5.57924
rhand -19.6578 -8.42828
rfingers 7.12502
rthumb 6.67016 -38.3032
lclavicle 5.74612e-016 -3.57812e-015
lhumerus -30.42 14.3561 81.6657
lradius 18.4915
lwrist 10.1985
lhand -18.8698 20.666
lfingers 7.12502
lthumb 7.43087 50.5155
rfemur -4.72533 0.631407 23.6108
rtibia 34.2166
rfoot -13.3527 -5.87816
rtoes -0.24851
lfemur 5.62244 6.06463 -16.5998
ltibia 17.8602
lfoot -4.46691 0.684529
ltoes -10.921
5
root -37.11 17.6179 -5.8561 -91.0623 86.7416 -89.6432
lowerback -2.06346 -0.604112 2.60755
upperback 1.29626 -0.883625 -0.0413807
thorax 2.44809 -0.395231 -1.54037
lowerneck -7.49998 -0.605406 1.05589
upperneck 11.5153 -1.14183 2.16948
head 4.69241 -0.350789 0.428184
rclavicle 1.05791e-014 -1.19271e-015
rhumerus -32.749 -10.3587 -85.6202
rradius 22.7024
rwrist 5.64056
rhand -19.5726 -8.39853
rfingers 7.12502
rthumb 6.75244 -38.2709
lclavicle 1.05791e-014 -1.19271e-015
lhumerus -30.45 14.5095 81.5473
lradius 18.3905
lwrist 10.1796
lhand -18.7556 20.123
lfingers 7.12502
lthumb 7.54105 49.9686
rfemur -4.83624 0.533141 23.5533
rtibia 34.1713
rfoot -12.0812 -5.88309
rtoes -0.147679
lfemur 5.51232 6.06309 -16.4896
ltibia 17.8494
lfoot -3.20957 0.938043
ltoes -11.1411
6
root -37.0945 17.6773 -5.85535 -89.0059 86.7153 -87.6382
lowerback -2.12027 -0.570595 2.61157
upperback 1.23227 -0.840452 -0.028428
thorax 2.4163 -0.374938 -1.52784
lowerneck -7.57769 -0.561268 1.12979
upperneck 11.7081 -1.08642 2.10093
head 4.76374 -0.3206 0.39831
rclavicle -6.83943e-015 7.95139e-016
rhumerus -32.7873 -10.3484 -85.6109
rradius 22.6954
rwrist 5.66282
rhand -19.487 -8.34383
rfingers 7.12502
rthumb 6.83503 -38.2135
lclavicle -6.83943e-015 7.95139e-016
lhumerus -30.4989 14.5705 81.4668
lradius 18.3613
lwrist 10.2594
lhand -18.6355 19.6619
lfingers 7.12502
lthumb 7.65696 49.5033
rfemur -5.01331 0.470522 23.4696
rtibia 34.1722
rfoot -10.8458 -5.9622
rtoes 0.140353
lfemur 5.40852 6.05645 -16.4182
ltibia 17.7444
lfoot -1.90084 1.23981
ltoes -11.0292
7
root -37.0801 17.7361 -5.8542 -86.9624 86.7278 -85.6623
lowerback -2.17441 -0.538279 2.56727
upperback 1.16152 -0.796938 -0.0283386
thorax 2.37647 -0.355344 -1.50132
lowerneck -7.65339 -0.522892 1.20674
upperneck 11.8911 -1.03892 2.03218
head 4.83193 -0.294375 0.367419
rclavicle 5.32739e-015 -1.59028e-015
rhumerus -32.8307 -10.3076 -85.617
rradius 22.7264
rwrist 5.64719
rhand -19.3954 -8.29591
rfingers 7.12502
rthumb 6.92344 -38.1627
lclavicle 5.32739e-015 -1.59028e-015
lhumerus -30.5619 14.514 81.4367
lradius 18.4188
lwrist 10.4422
lhand -18.5217 19.394
lfingers 7.12502
lthumb 7.76684 49.2313
rfemur -5.22316 0.423163 23.3487
rtibia 34.1815
rfoot -9.63844 -6.11766
rtoes 0.617025
lfemur 5.28946 6.05397 -16.3893
ltibia 17.6114
lfoot -0.587662 1.57614
ltoes -10.5618
8
root -37.0665 17.794 -5.8531 -84.8659 86.7699 -83.6429
lowerback -2.22829 -0.509761 2.48773
upperback 1.09337 -0.757172 -0.0372997
thorax 2.33921 -0.337997 -1.46448
lowerneck -7.73363 -0.492029 1.27239
upperneck 12.0632 -1.00117 1.97133
head 4.89779 -0.273176 0.340203
rclavicle 2.43123e-015 1.98785e-015
rhumerus -32.8668 -10.2265 -85.6421
rradius 22.7968
rwrist 5.58147
rhand -19.32 -8.25772
rfingers 7.12502
rthumb 6.99624 -38.1221
lclavicle 2.43123e-015 1.98785e-015
lhumerus -30.6314 14.3454 81.4629
lradius 18.5678
lwrist 10.7211
lhand -18.4289 19.3381
lfingers 7.12502
lthumb 7.85639 49.1722
rfemur -5.46107 0.378941 23.1955
rtibia 34.2114
rfoot -8.47235 -6.33676
rtoes 1.27322
lfemur 5.18404 6.04928 -16.3975
ltibia 17.4294
lfoot 0.719637 1.96477
ltoes -9.94378
9
root -37.0539 17.8503 -5.85237 -83.101 86.8332 -81.9582
lowerback -2.27355 -0.492233 2.38846
upperback 1.02903 -0.731018 -0.0534693
thorax 2.30052 -0.327591 -1.42445
lowerneck -7.80514 -0.470652 1.31788
upperneck 12.2116 -0.975631 1.92932
head 4.95519 -0.25817 0.321347
rclavicle 1.32984e-014 9.93923e-015
rhumerus -32.8976 -10.1162 -85.6809
rradius 22.903
rwrist 5.48266
rhand -19.2632 -8.21408
rfingers 7.12502
rthumb 7.0511 -38.0766
lclavicle 1.32984e-014 9.93923e-015
lhumerus -30.7073 14.0625 81.5473
lradius 18.8138
lwrist 11.089
lhand -18.3648 19.5334
lfingers 7.12502
lthumb 7.91828 49.3651
rfemur -5.71357 0.29833 23.0159
rtibia 34.252
rfoot -7.33992 -6.61968
rtoes 1.99899
lfemur 5.08217 6.05127 -16.426
ltibia 17.2179
lfoot 2.01629 2.3838
ltoes -9.04933
10
root -37.042 17.9039 -5.85229 -81.4119 86.8849 -80.3423
lowerback -2.30366 -0.480744 2.3063
upperback 0.971882 -0.713088 -0.067924
thorax 2.26015 -0.320888 -1.39247
lowerneck -7.86777 -0.460032 1.34262
upperneck 12.3341 -0.963452 1.90182
head 5.00338 -0.250279 0.309522
rclavicle 3.66897e-015 7.95139e-016
rhumerus -32.9183 -9.97914 -85.7302
rradius 23.0431
rwrist 5.36183
rhand -19.2178 -8.20147
rfingers 7.12502
rthumb 7.09496 -38.0625
lclavicle 3.66897e-015 7.95139e-016
lhumerus -30.7912 13.7288 81.6566
lradius 19.119
lwrist 11.5067
lhand -18.3099 19.8204
lfingers 7.12502
lthumb 7.97127 49.6501
rfemur -5.96046 0.189502 22.8421
rtibia 34.2895
rfoot -6.23024 -6.94574
rtoes 2.78983
lfemur 4.99581 6.05455 -16.444
ltibia 16.9999
lfoot 3.26249 2.85348
ltoes -8.08229
11
root -37.0306 17.9547 -5.85298 -79.8897 86.9058 -78.8834
lowerback -2.31788 -0.474182 2.26426
upperback 0.921826 -0.702729 -0.0766429
thorax 2.21744 -0.317293 -1.37725
lowerneck -7.92606 -0.444968 1.37007
upperneck 12.4209 -0.945659 1.8766
head 5.0398 -0.240125 0.298317
rclavicle 1.64929e-015 -6.36111e-015
rhumerus -32.9315 -9.81982 -85.7905
rradius 23.2124
rwrist 5.21948
rhand -19.1997 -8.22144
rfingers 7.12502
rthumb 7.11236 -38.0819
lclavicle 1.64929e-015 -6.36111e-015
lhumerus -30.8853 13.3434 81.7865
lradius 19.4795
lwrist 11.9707
lhand -18.2715 20.1719
lfingers 7.12502
lthumb 8.00834 50.0002
rfemur -6.19197 0.0576308 22.6956
rtibia 34.314
rfoot -5.14186 -7.31219
rtoes 3.6232
lfemur 4.91427 6.06963 -16.4273
ltibia 16.7914
lfoot 4.44882 3.36709
ltoes -6.83957
12
root -37.0205 18.002 -5.85394 -79.0072 86.8805 -78.0584
lowerback -2.31172 -0.479375 2.27485
upperback 0.878193 -0.709482 -0.0710812
thorax 2.1688 -0.321542 -1.37741
lowerneck -7.97982 -0.427514 1.39688
upperneck 12.4656 -0.924331 1.85131
head 5.06245 -0.229188 0.287415
rclavicle -1.23417e-014 3.57812e-015
rhumerus -32.9281 -9.64288 -85.8565
rradius 23.4014
rwrist 5.06228
rhand -19.2009 -8.26729
rfingers 7.12502
rthumb 7.11121 -38.1278
lclavicle -1.23417e-014 3.57812e-015
lhumerus -30.9821 12.9293 81.9303
lradius 19.8844
lwrist 12.4593
lhand -18.2422 20.5863
lfingers 7.12502
lthumb 8.03657 50.4135
rfemur -6.40363 -0.0830364 22.6064
rtibia 34.3153
rfoot -4.09831 -7.73009
rtoes 4.52274
lfemur 4.81361 6.07119 -16.3546
ltibia 16.6151
lfoot 5.55721 3.93899
ltoes -5.21088
13
root -37.0114 18.0455 -5.85509 -78.5912 86.8063 -77.694
lowerback -2.2857 -0.490802 2.34057
upperback 0.839432 -0.725966 -0.0523326
thorax 2.11316 -0.329994 -1.39512
lowerneck -8.0182 -0.410326 1.42097
upperneck 12.4646 -0.903375 1.83357
head 5.06842 -0.219031 0.279279
rclavicle 3.59676e-015 8.34896e-015
rhumerus -32.911 -9.45036 -85.9304
rradius 23.6082
rwrist 4.8846
rhand -19.2251 -8.34505
rfingers 7.12502
rthumb 7.08789 -38.2064
lclavicle 3.59676e-015 8.34896e-015
lhumerus -31.0799 12.495 82.0801
lradius 20.3228
lwrist 12.9525
lhand -18.2265 21.0606
lfingers 7.12502
lthumb 8.05172 50.8872
rfemur -6.59191 -0.211723 22.5773
rtibia 34.2909
rfoot -3.11728 -8.18852
rtoes 5.55196
lfemur 4.69362 6.06003 -16.2259
ltibia 16.4772
lfoot 6.55263 4.59287
ltoes -3.09652
14
root -37.0032 18.0853 -5.85627 -78.6089 86.6959 -77.7627
lowerback -2.24986 -0.50779 2.44693
upperback 0.80477 -0.750925 -0.0231363
thorax 2.05551 -0.34221 -1.42511
lowerneck -8.03323 -0.395827 1.43835
upperneck 12.4134 -0.885744 1.82722
head 5.055 -0.211113 0.275567
rclavicle -5.11405e-015 -6.36111e-015
rhumerus -32.8843 -9.24625 -86.0081
rradius 23.8268
rwrist 4.68343
rhand -19.2671 -8.42355
rfingers 7.12502
rthumb 7.04737 -38.2862
lclavicle -5.11405e-015 -6.36111e-015
lhumerus -31.1743 12.0508 82.2325
lradius 20.7845
lwrist 13.4372
lhand -18.2305 21.6111
lfingers 7.12502
lthumb 8.04791 51.4379
rfemur -6.76246 -0.325432 22.5961
rtibia 34.2435
rfoot -2.20157 -8.67881
rtoes 6.63788
lfemur 4.55322 6.04324 -16.0546
ltibia 16.3761
lfoot 7.43579 5.31074
ltoes -0.684316
